<svg viewBox="0 0 40 40" xmlns="http://www.w3.org/2000/svg" xmlns:xlink="http://www.w3.org/1999/xlink" width="40.000000" height="40.000000" fill="none" customFrame="#000000">
	<defs>
		<clipPath id="clipPath_0">
			<rect width="40.000000" height="40.000000" x="0.000000" y="0.000000" fill="rgb(255,255,255)" />
		</clipPath>
	</defs>
	<g id="Сочетание 1">
		<g id="Logo/Craftwork" customFrame="url(#clipPath_0)">
			<rect id="Logo/Craftwork" width="40.000000" height="40.000000" x="0.000000" y="0.000000" />
			<circle id="Ellipse 2" cx="20" cy="20" r="20" fill="rgb(133,170,159)" />
			<path id="Union" d="M20.4431 19C26.387 14.517 26.6495 11.8 20.4431 7C14.1184 11.9024 14.9336 14.501 20.4431 19ZM19 20.5569C14.517 14.613 11.8 14.3505 7 20.5569C11.9024 26.8816 14.501 26.0664 19 20.5569ZM34 20.5569C29.517 14.613 26.8 14.3505 22 20.5569C26.9024 26.8816 29.501 26.0664 34 20.5569ZM20.4431 34C26.387 29.517 26.6495 26.8 20.4431 22C14.1184 26.9024 14.9336 29.501 20.4431 34Z" fill="rgb(252,252,252)" fill-rule="evenodd" />
		</g>
	</g>
</svg>
